<svg width="512" height="512" viewBox="0 0 512 512" xmlns="http://www.w3.org/2000/svg">
  <rect width="512" height="512" fill="#121212"/>
  <defs>
    <linearGradient id="grad" x1="0%" y1="100%" x2="100%" y2="0%">
      <stop offset="0%" style="stop-color:#8b5cf6;stop-opacity:1" />
      <stop offset="100%" style="stop-color:#22d3ee;stop-opacity:1" />
    </linearGradient>
  </defs>
  <path d="M 148.5 428.5 C 180.5 446.5 217.5 456.5 256.5 456.5 C 366.5 456.5 456.5 366.5 456.5 256.5 C 456.5 146.5 366.5 56.5 256.5 56.5 C 146.5 56.5 56.5 146.5 56.5 256.5 C 56.5 306.5 76.5 356.5 116.5 406.5 L 148.5 428.5 Z M 256.5 76.5 C 157.5 76.5 76.5 157.5 76.5 256.5 C 76.5 301.5 93.5 343.5 122.5 375.5 L 148.5 411.5 L 174.5 375.5 C 203.5 343.5 220.5 436.5 256.5 436.5 C 355.5 436.5 436.5 355.5 436.5 256.5 C 436.5 157.5 355.5 76.5 256.5 76.5 Z M 256.5 176.5 C 186.5 176.5 126.5 256.5 126.5 256.5 C 126.5 256.5 186.5 336.5 256.5 336.5 C 326.5 336.5 386.5 256.5 386.5 256.5 C 386.5 256.5 326.5 176.5 256.5 176.5 Z M 256.5 206.5 C 306.5 206.5 356.5 256.5 356.5 256.5 C 356.5 256.5 306.5 306.5 256.5 306.5 C 206.5 306.5 156.5 256.5 156.5 256.5 C 156.5 256.5 206.5 206.5 256.5 206.5 Z" fill="url(#grad)" />
</svg>